<svg width="220" height="220" viewBox="0 0 220 220" fill="none" xmlns="http://www.w3.org/2000/svg">
<rect width="220" height="220" fill="white"/>
<path d="M33 25H81.5L106.5 49V125.5H162.5L186 149V194H57L33 169.5V25Z" fill="black"/>
<path d="M186 194H57L33 169.5V25H81.5L106.5 49V125.5H162.5L186 149V194ZM81.5 25V169.5M81.5 169.5H33M81.5 169.5H162.5L186 194" stroke="black"/>
<rect x="82" y="133" width="72" height="10" fill="#86F8FE"/>
<rect x="40" y="32" width="33" height="63" fill="#EB74F4"/>
<path d="M52.2578 103C52.0919 103.469 52 103.974 52 104.5C52 106.985 54.0147 109 56.5 109C58.9853 109 61 106.985 61 104.5C61 103.974 60.9081 103.469 60.7422 103H73V161H60.9717C60.9898 160.836 61 160.669 61 160.5C61 158.015 58.9853 156 56.5 156C54.0147 156 52 158.015 52 160.5C52 160.669 52.0102 160.836 52.0283 161H40V103H52.2578ZM46.5 142C44.0147 142 42 144.015 42 146.5C42 148.985 44.0147 151 46.5 151C48.9853 151 51 148.985 51 146.5C51 144.015 48.9853 142 46.5 142ZM66.5 142C64.0147 142 62 144.015 62 146.5C62 148.985 64.0147 151 66.5 151C68.9853 151 71 148.985 71 146.5C71 144.015 68.9853 142 66.5 142ZM56.5 128C54.0147 128 52 130.015 52 132.5C52 134.985 54.0147 137 56.5 137C58.9853 137 61 134.985 61 132.5C61 130.015 58.9853 128 56.5 128ZM46.5 113C44.0147 113 42 115.015 42 117.5C42 119.985 44.0147 122 46.5 122C48.9853 122 51 119.985 51 117.5C51 115.015 48.9853 113 46.5 113ZM66.5 113C64.0147 113 62 115.015 62 117.5C62 119.985 64.0147 122 66.5 122C68.9853 122 71 119.985 71 117.5C71 115.015 68.9853 113 66.5 113Z" fill="white"/>
<rect x="82" y="151" width="72" height="10" fill="#86F8FE"/>
</svg>
